<svg xmlns="http://www.w3.org/2000/svg" xml:space="preserve" id="curve" x="0" y="0" version="1.1" viewBox="0 0 100 100">
  <path fill="#03ADAD" d="M88 2H12C6.477 2 2 6.477 2 12v76c0 5.523 4.477 10 10 10h76c5.523 0 10-4.477 10-10V12c0-5.523-4.477-10-10-10z"></path>
  <path fill="#04847D" d="M98 88V62.092L62.255 26.355l-.04-.04c-.18-.18-.43-.3-.71-.3-.55 0-1 .45-1 1v11.82l-4.2-4.2c-3.3-3.4-7.69-5.71-12.61-6.41l-2.21-2.21h-5.97v5.97l24.06 24.07c-2.29 7.32-8.59 12.69-16.29 13.76l-1.8-1.8h-5.97v5.97L59.53 98H88c5.523 0 10-4.477 10-10z"></path>
  <path fill="#FFF" d="M62.505 47.015v-20c0-.55-.45-1-1-1s-1 .45-1 1v13.77c-3.35-7.34-10.57-12.4-19.02-12.77v-2h-5.97v5.97h5.97v-1.97c9.57.46 17.4 7.54 18.8 17h-1.77v5.97h1.77c-1.4 9.45-9.23 16.53-18.8 16.99v-1.96h-5.97v5.97h5.97v-2.01c8.45-.37 15.67-5.42 19.02-12.75v13.76c0 .56.45 1 1 1s1-.44 1-1v-20h1.98v-5.97h-1.98z"></path>
</svg>
